<?xml version="1.0" standalone="no"?>
<!DOCTYPE svg PUBLIC "-//W3C//DTD SVG 20010904//EN"
 "http://www.w3.org/TR/2001/REC-SVG-20010904/DTD/svg10.dtd">
<svg version="1.0" xmlns="http://www.w3.org/2000/svg"
 width="1500.000000pt" height="1500.000000pt" viewBox="0 0 1500.000000 1500.000000"
 preserveAspectRatio="xMidYMid meet">
<metadata>
Created by potrace 1.14, written by Peter Selinger 2001-2017
</metadata>
<g transform="translate(0.000000,1500.000000) scale(0.100000,-0.100000)"
fill="#000000" stroke="none">
<path d="M7290 14789 c-448 -33 -970 -151 -1384 -315 -718 -285 -1317 -699
-1842 -1272 -691 -755 -1134 -1754 -1234 -2782 -8 -82 -10 -927 -8 -2980 4
-3157 -2 -2872 64 -3240 110 -613 363 -1253 699 -1765 462 -703 1054 -1249
1784 -1645 776 -421 1687 -623 2570 -571 1048 62 2000 434 2816 1100 152 124
428 392 559 541 602 687 980 1475 1148 2395 l33 180 0 3070 0 3070 -33 180
c-145 802 -435 1471 -919 2121 -434 581 -1032 1079 -1693 1409 -583 291 -1174
454 -1829 505 -155 12 -562 11 -731 -1z m370 -2044 l0 -595 -53 0 c-70 0 -164
-46 -207 -100 -63 -80 -60 -24 -60 -992 l0 -883 24 -50 c43 -93 154 -165 256
-165 l38 0 6 -532 c4 -293 6 -742 4 -998 l-3 -465 -60 -6 c-155 -15 -322 -98
-449 -225 -150 -149 -226 -335 -226 -551 0 -137 21 -228 80 -348 78 -160 188
-273 340 -354 292 -153 650 -106 893 119 172 159 257 350 257 580 0 265 -130
506 -353 659 -98 66 -253 121 -345 121 l-42 0 0 588 c0 323 -3 773 -7 1000
l-6 412 40 0 c104 0 208 61 258 151 l30 54 3 869 c3 999 7 942 -81 1031 -59
58 -121 85 -199 85 l-48 0 0 596 0 597 123 -7 c456 -27 879 -138 1293 -342
668 -329 1202 -857 1538 -1523 176 -349 279 -682 338 -1092 l22 -154 3 -2572
3 -2573 -3400 0 -3400 0 3 2598 c3 2870 -2 2625 67 2961 205 997 869 1866
1781 2331 451 230 971 364 1427 369 l112 1 0 -595z m158 -5260 c62 -27 112
-86 112 -135 0 -16 -6 -20 -34 -20 -28 0 -36 5 -46 30 -20 47 -62 72 -125 72
-69 1 -112 -17 -130 -53 -42 -80 -4 -121 145 -159 150 -38 201 -83 202 -179 0
-112 -83 -181 -219 -181 -135 0 -205 43 -233 141 -8 28 -8 29 28 29 32 0 40
-5 56 -34 25 -46 76 -70 147 -69 68 1 113 23 134 64 39 74 -15 131 -150 160
-122 26 -187 73 -201 145 -14 77 41 167 117 191 51 17 155 15 197 -2z m-780
-4521 c2 -1027 4 -992 -47 -964 -21 11 -21 11 -21 959 0 521 3 951 7 955 4 4
19 6 33 4 l25 -3 3 -951z m939 689 c90 -30 143 -70 178 -135 37 -68 35 -244
-4 -332 -41 -93 -154 -166 -286 -186 -38 -5 -190 -10 -337 -10 l-268 0 0 346
0 346 328 -4 c296 -4 333 -6 389 -25z m-112 -843 c194 -10 268 -28 353 -85 62
-42 104 -97 129 -168 22 -64 25 -249 5 -317 -19 -66 -81 -149 -143 -192 -120
-84 -273 -108 -696 -108 l-253 0 0 440 0 440 218 0 c119 0 294 -5 387 -10z
m-836 -964 c7 -9 11 -40 9 -78 -3 -58 -5 -63 -27 -66 -32 -5 -41 12 -41 79 0
70 29 102 59 65z"/>
<path d="M7330 3335 l0 -275 238 0 c256 0 330 8 402 45 88 46 121 92 140 193
23 128 -14 223 -102 266 -78 37 -156 46 -430 46 l-248 0 0 -275z"/>
<path d="M7330 2380 l0 -372 298 5 c399 7 480 26 585 136 70 73 82 109 82 246
0 97 -3 116 -26 165 -16 34 -42 68 -65 87 -105 82 -161 92 -556 100 l-318 6 0
-373z"/>
</g>
</svg>
